<svg enable-background="new 0 0 655 120" viewBox="0 0 655 120" xmlns="http://www.w3.org/2000/svg"><g fill="#333"><path d="m116.5 43.3-1.7 2v-10.4h-17.2v80.2h17.3v-41.5c0-15.8 9-24.6 25.4-25v-14.8c-10.7.2-18.5 3.3-23.8 9.5"/><path d="m403.7 9.1h17.3v106.1h-17.3z"/><path d="m43.3 48c14.4 0 25.3 11.6 25.3 27s-10.9 27-25.3 27c-14.2 0-24.9-11.6-24.9-27-.1-15.4 10.7-27 24.9-27m-42.3 27c0 24.1 18.2 42.2 42.2 42.2 15.8 0 25.3-11.1 25.3-11.1v8.9h17.3v-40.1c0-24.1-18.3-42.2-42.6-42.2-24 .1-42.2 18.3-42.2 42.3"/><path d="m199.1 34.9h17.3v80.2h-17.3z"/><path d="m219.8 12.7c0-6.4-5.2-11.7-11.7-11.7-6.4 0-11.5 5.2-11.5 11.7 0 6.4 5.2 11.5 11.5 11.5 6.5 0 11.7-5.1 11.7-11.5"/><path d="m267.8 102.1c-14.2 0-24.9-11.6-24.9-27s10.7-27 24.9-27c10.2 0 18.7 5.6 22.8 15h18.1c-5.1-18.4-21-30.2-40.9-30.2-24.1 0-42.2 18.2-42.2 42.2 0 24.1 18.1 42.2 42.2 42.2 19.2 0 35-11.2 40.5-28.7h-18.4c-4.3 8.4-12.5 13.5-22.1 13.5"/><path d="m587.4 67.2.4-1.2c3.4-11.1 12.5-17.9 23.6-17.9 11.3 0 20.5 6.9 23.9 17.9l.4 1.2zm24-34.4c-24.1 0-42.2 18.2-42.2 42.2s18.1 42.2 42.2 42.2c17.7 0 32.5-9.5 39.1-24.9h-19.3c-4.7 6.3-11.7 9.7-19.7 9.7-12.1 0-21.9-8.5-24.4-21.1l-.2-1.1h49.6 17.3c.2-1.8.3-3.3.3-4.8-.1-24-18.4-42.2-42.7-42.2"/><path d="m432.5 9.1h81.5v13.8h-81.5z"/><path d="m168 9.1h-17.3v80.2c0 16.6 9.2 27 24 27 5.3 0 11.7-.7 14-1v-15c-2.2.3-7.4 1-11.1 1-5.4 0-9.6-4.6-9.6-10.5v-41.7h20.7v-14.2h-20.7v-25.8"/><path d="m543 90.7v-41.7h20.7v-14.1h-20.7v-25.8h-17.3v80.2c0 16.6 9.2 27 24 27 5.3 0 11.7-.8 14-1v-15c-2.2.3-7.4 1-11.1 1-5.3 0-9.6-4.6-9.6-10.6"/><path d="m473.1 48c14.4 0 25.3 11.6 25.3 27s-10.9 27-25.3 27c-14.2 0-24.9-11.6-24.9-27s10.7-27 24.9-27m-42.2 27c0 24.1 18.2 42.2 42.2 42.2 15.8 0 25.3-11.1 25.3-11.1v8.9h17.3v-40.1c0-24.1-18.3-42.2-42.6-42.2-24.1.1-42.2 18.3-42.2 42.3"/><path d="m353.4 101.9c-15.9 0-18.2-13.1-18.2-27v-40h-17.2v44.3c0 19.6 10.2 37.9 33.6 37.9 15.3 0 23.1-11 23.1-11v8.9h17.3v-80.1h-17.3v39.6c0 18.6-10.8 27.4-21.3 27.4"/></g></svg>